<svg width="200" height="123" viewBox="0 0 200 123" fill="none" xmlns="http://www.w3.org/2000/svg">
<path d="M198.672 76.9317L189.12 84.3993L187.429 72.3934L198.672 76.9317Z" fill="#FF9090"/>
<path d="M192.833 75.7016C192.833 87.0661 150.94 122.842 112.833 122.842C74.725 122.842 43.8326 113.629 43.8326 102.265C43.8326 90.9005 74.725 81.6878 112.833 81.6878C150.94 81.6878 192.833 64.3372 192.833 75.7016Z" fill="#FCC3F1"/>
<path d="M64.2573 56L66.9259 -3.24952e-07L121.351 88.6225L76.3326 109L64.2573 56Z" fill="#FCC3F1"/>
<path d="M47.573 73.3019L18.2782 37.0001L107.8 73.0289L85.354 116L47.573 73.3019Z" fill="#FCC3F1"/>
<ellipse cx="178.833" cy="79.5001" rx="1" ry="1.5" fill="black"/>
</svg>
