<svg width="291" height="173" viewBox="0 0 291 173" fill="none" xmlns="http://www.w3.org/2000/svg">
<path d="M130.739 0C93.8049 0 63.8635 24.8547 63.8633 55.5146C63.8633 57.7652 64.0263 59.9846 64.3398 62.165C62.693 62.0366 61.0271 61.9697 59.3447 61.9697C26.5695 61.9697 0 86.8253 0 117.485C0.000152588 146.146 23.2179 169.732 53.0186 172.687V173H231.354V172.998C231.455 172.999 231.555 173 231.655 173C264.43 173 291 148.145 291 117.485C291 91.9904 272.628 70.509 247.594 63.9951C247.61 63.3231 247.621 62.6476 247.621 61.9697C247.621 31.3099 230.762 6.45508 209.966 6.45508C199.865 6.45508 190.694 12.3193 183.932 21.8633C171.713 8.57454 152.432 3.01594e-05 130.739 0Z" fill="#E8E8E8"/>
<path d="M142.021 3.87314C107.686 3.87314 79.8528 27.2439 79.8525 56.0733C79.8525 58.1894 80.0044 60.2761 80.2959 62.3263C78.7648 62.2055 77.2155 62.1436 75.6514 62.1436C45.1836 62.1438 20.4846 85.5145 20.4844 114.344C20.4844 141.294 42.0677 163.472 69.7705 166.25V166.545H235.553V166.543C235.646 166.544 235.74 166.545 235.833 166.545C266.301 166.545 291 143.173 291 114.344C291 90.3712 273.922 70.173 250.649 64.0479C250.665 63.416 250.675 62.7812 250.675 62.1436C250.675 33.3141 235.002 9.94345 215.67 9.94345C206.28 9.94352 197.755 15.4568 191.469 24.4308C180.11 11.9354 162.187 3.87315 142.021 3.87314Z" fill="white"/>
<path d="M142.021 3.87314C107.686 3.87314 79.8528 27.2439 79.8525 56.0733C79.8525 58.1894 80.0044 60.2761 80.2959 62.3263C78.7648 62.2055 77.2155 62.1436 75.6514 62.1436C45.1836 62.1438 20.4846 85.5145 20.4844 114.344C20.4844 141.294 42.0677 163.472 69.7705 166.25V166.545H235.553V166.543C235.646 166.544 235.74 166.545 235.833 166.545C266.301 166.545 291 143.173 291 114.344C291 90.3712 273.922 70.173 250.649 64.0479C250.665 63.416 250.675 62.7812 250.675 62.1436C250.675 33.3141 235.002 9.94345 215.67 9.94345C206.28 9.94352 197.755 15.4568 191.469 24.4308C180.11 11.9354 162.187 3.87315 142.021 3.87314Z" fill="white"/>
<path d="M142.021 3.87314C107.686 3.87314 79.8528 27.2439 79.8525 56.0733C79.8525 58.1894 80.0044 60.2761 80.2959 62.3263C78.7648 62.2055 77.2155 62.1436 75.6514 62.1436C45.1836 62.1438 20.4846 85.5145 20.4844 114.344C20.4844 141.294 42.0677 163.472 69.7705 166.25V166.545H235.553V166.543C235.646 166.544 235.74 166.545 235.833 166.545C266.301 166.545 291 143.173 291 114.344C291 90.3712 273.922 70.173 250.649 64.0479C250.665 63.416 250.675 62.7812 250.675 62.1436C250.675 33.3141 235.002 9.94345 215.67 9.94345C206.28 9.94352 197.755 15.4568 191.469 24.4308C180.11 11.9354 162.187 3.87315 142.021 3.87314Z" fill="white"/>
</svg>
