<svg width="483" height="268" viewBox="0 0 483 268" fill="none" xmlns="http://www.w3.org/2000/svg">
<path d="M266 0C327.304 0 377 38.5035 377 86C377 89.4864 376.729 92.9239 376.209 96.3018C378.943 96.1029 381.708 96 384.5 96C438.9 96 483 134.504 483 182C483 226.4 444.463 262.938 395 267.515V268H99V267.997C98.8334 267.998 98.6668 268 98.5 268C44.1 268 0 229.496 0 182C0 142.506 30.491 109.231 72.041 99.1387C72.0139 98.0971 72 97.0507 72 96C72 48.5035 99.9822 10 134.5 10C151.265 10 166.488 19.0835 177.712 33.8682C197.992 13.2825 229.994 0 266 0Z" fill="#E8E8E8"/>
<path d="M247.275 6C304.263 6.00002 350.462 42.2046 350.462 86.8652C350.462 90.1436 350.21 93.3765 349.727 96.5527C352.268 96.3657 354.838 96.2686 357.434 96.2686C408.004 96.2686 449 132.474 449 177.135C449 218.884 413.176 253.241 367.194 257.544V258H92.0312V257.997C91.8764 257.998 91.7215 258 91.5664 258C40.9959 258 0.000270829 221.795 0 177.135C0 139.999 28.3446 108.709 66.9697 99.2197C66.9445 98.2404 66.9316 97.2565 66.9316 96.2686C66.9317 51.6077 92.9443 15.4033 125.032 15.4033C140.617 15.4034 154.768 23.9439 165.202 37.8457C184.055 18.4892 213.804 6 247.275 6Z" fill="white"/>
<path d="M247.275 6C304.263 6.00002 350.462 42.2046 350.462 86.8652C350.462 90.1436 350.21 93.3765 349.727 96.5527C352.268 96.3657 354.838 96.2686 357.434 96.2686C408.004 96.2686 449 132.474 449 177.135C449 218.884 413.176 253.241 367.194 257.544V258H92.0312V257.997C91.8764 257.998 91.7215 258 91.5664 258C40.9959 258 0.000270829 221.795 0 177.135C0 139.999 28.3446 108.709 66.9697 99.2197C66.9445 98.2404 66.9316 97.2565 66.9316 96.2686C66.9317 51.6077 92.9443 15.4033 125.032 15.4033C140.617 15.4034 154.768 23.9439 165.202 37.8457C184.055 18.4892 213.804 6 247.275 6Z" fill="white"/>
<path d="M247.275 6C304.263 6.00002 350.462 42.2046 350.462 86.8652C350.462 90.1436 350.21 93.3765 349.727 96.5527C352.268 96.3657 354.838 96.2686 357.434 96.2686C408.004 96.2686 449 132.474 449 177.135C449 218.884 413.176 253.241 367.194 257.544V258H92.0312V257.997C91.8764 257.998 91.7215 258 91.5664 258C40.9959 258 0.000270829 221.795 0 177.135C0 139.999 28.3446 108.709 66.9697 99.2197C66.9445 98.2404 66.9316 97.2565 66.9316 96.2686C66.9317 51.6077 92.9443 15.4033 125.032 15.4033C140.617 15.4034 154.768 23.9439 165.202 37.8457C184.055 18.4892 213.804 6 247.275 6Z" fill="white"/>
</svg>
