<svg width="575" height="356" viewBox="0 0 575 356" fill="none" xmlns="http://www.w3.org/2000/svg">
<ellipse cx="130.306" cy="259.041" rx="130.306" ry="96.9594" fill="#C7C7C7"/>
<ellipse cx="443.315" cy="259.041" rx="131.685" ry="96.9594" fill="#C7C7C7"/>
<ellipse cx="138.193" cy="133.233" rx="138.193" ry="133.233" transform="matrix(0.0389759 -0.99924 0.999078 0.0429232 67.5659 316.696)" fill="#C7C7C7"/>
<ellipse cx="138.193" cy="133.233" rx="138.193" ry="133.233" transform="matrix(0.0389759 -0.99924 0.999078 0.0429232 206.835 276.175)" fill="#C7C7C7"/>
<rect x="107.554" y="219.968" width="357.134" height="136.033" fill="#C7C7C7"/>
<ellipse cx="120.241" cy="239.033" rx="120.241" ry="89.4706" fill="#D9D9D9"/>
<ellipse cx="409.076" cy="239.033" rx="121.514" ry="89.4706" fill="#D9D9D9"/>
<ellipse cx="127.519" cy="122.943" rx="127.519" ry="122.943" transform="matrix(0.0389759 -0.99924 0.999078 0.0429232 62.3474 292.235)" fill="#D9D9D9"/>
<ellipse cx="127.519" cy="122.943" rx="127.519" ry="122.943" transform="matrix(0.0389759 -0.99924 0.999078 0.0429232 190.859 254.845)" fill="#D9D9D9"/>
<rect x="99.2469" y="202.978" width="329.551" height="125.526" fill="#D9D9D9"/>
</svg>
